<svg xmlns="http://www.w3.org/2000/svg" style="width:100%;height:auto" width="800" height="400" display="block"><defs><filter id="a" color-interpolation-filters="sRGB"><feFlood flood-opacity=".498" flood-color="#000" result="flood"/><feComposite in="flood" in2="SourceGraphic" operator="in" result="composite1"/><feGaussianBlur in="composite1" stdDeviation="3" result="blur"/><feOffset dx="6" dy="6" result="offset"/><feComposite in="SourceGraphic" in2="offset" result="composite2"/></filter></defs><path d="M433.6 41.031c-2.341 0-4.333.8-5.977 2.4-1.633 1.59-2.45 3.718-2.45 6.385v6.729h16.755V49.67c0-2.602-.77-4.693-2.317-6.272-1.546-1.578-3.55-2.367-6.011-2.367zm20.789 0c-2.428 0-4.295.68-5.602 2.041-1.306 1.35-1.959 3.038-1.959 5.063v8.41h26.537l-.49-15.514h-2.45l.458 14.11h-21.639v-4.46h12.705v-2.218c0-2.471-.63-4.33-1.892-5.57-1.263-1.242-3.153-1.862-5.668-1.862zm28.53 0c-1.589 0-2.914.6-3.97 1.797-1.045 1.198-1.566 2.798-1.566 4.8 0 2.82.968 5.064 2.906 6.73 1.938 1.654 4.42 2.482 7.447 2.482 1.546 0 3.086-.258 4.621-.77 1.285.512 2.751.77 4.395.77 2.961 0 5.274-.807 6.94-2.418 1.665-1.611 2.497-3.74 2.497-6.385a10.27 10.27 0 0 0-.668-3.707c-.435-1.176-1.09-2.275-1.96-3.299l-.979.686a11.935 11.935 0 0 1 1.648 3.086 9.716 9.716 0 0 1 .557 3.234c0 2.308-.67 4.12-2.01 5.438-1.328 1.306-3.103 1.96-5.324 1.96-1.35 0-2.302-.121-2.857-.36 1.85-.959 3.238-2.116 4.164-3.477.936-1.361 1.404-2.924 1.404-4.688 0-1.655-.521-3.047-1.566-4.18-1.035-1.132-2.44-1.699-4.215-1.699-1.546 0-2.837.404-3.871 1.21-1.024.805-1.704 1.932-2.041 3.38-.458-1.524-1.147-2.667-2.073-3.43-.925-.773-2.085-1.16-3.478-1.16zm31.958 0c-1.753 0-3.145.535-4.18 1.602-1.034 1.067-1.585 2.508-1.65 4.326h1.21c.077-1.372.495-2.465 1.257-3.281.762-.828 1.776-1.242 3.039-1.242 1.459 0 2.586.56 3.38 1.681.795 1.122 1.192 2.71 1.192 4.768 0 2.112-.421 3.719-1.26 4.818-.827 1.089-1.952 1.635-3.379 1.635-1.197 0-2.184-.399-2.957-1.193-.762-.806-1.184-1.917-1.271-3.333h-1.211c.087 1.862.654 3.315 1.7 4.36 1.044 1.045 2.42 1.57 4.13 1.57 2.069 0 3.758-.751 5.064-2.254 1.307-1.502 1.96-3.371 1.96-5.603 0-2.33-.648-4.218-1.944-5.666-1.296-1.46-2.99-2.188-5.08-2.188zm19.564 0c-2.732 0-4.941.692-6.629 2.074-1.687 1.383-2.53 3.202-2.53 5.456 0 1.665.5 3.074 1.501 4.228 1.013 1.154 2.304 1.726 3.871 1.715 1.285 0 2.346-.41 3.184-1.227.838-.827 1.262-1.892 1.273-3.199 0-1.328-.424-2.4-1.273-3.217-.85-.827-1.91-1.247-3.184-1.257-1.012 0-1.895.272-2.646.816a4.177 4.177 0 0 0-1.551 2.14c.142-1.84.831-3.321 2.072-4.443 1.252-1.121 2.937-1.681 5.05-1.681 1.796 0 3.165.357 4.112 1.076.948.707 1.422 1.699 1.422 2.972 0 .828-.223 1.494-.67 1.995-.435.49-1.092.817-1.974.98v1.11c1.328.12 2.324.435 2.988.947.675.5 1.012 1.197 1.012 2.09 0 .98-.452 1.715-1.356 2.205-.903.49-2.259.734-4.066.734h-4.672c-1.785 0-3.123.32-4.016.963-.892.642-1.34 1.612-1.34 2.908 0 1.274.415 2.237 1.243 2.89.827.665 2.197.997 4.113.997h12.184v-1.715h-12.543c-1.263 0-2.209-.198-2.84-.59-.632-.381-.947-.955-.947-1.728s.304-1.357.914-1.749c.61-.38 1.524-.572 2.744-.572h6.842c1.927 0 3.494-.364 4.703-1.094 1.208-.718 1.814-1.753 1.814-3.103 0-1.11-.426-1.991-1.275-2.645-.839-.653-2.097-1.072-3.774-1.257 1.1-.218 1.99-.714 2.664-1.487.686-.773 1.028-1.563 1.028-2.369 0-1.491-.708-2.688-2.123-3.592-1.416-.914-3.19-1.37-5.325-1.37zM433.6 42.241c1.752 0 3.343.663 4.77 1.991 1.436 1.318 2.153 3.195 2.153 5.633v5.276h-8.867a6.674 6.674 0 0 0 2.826-2.58c.686-1.144 1.03-2.32 1.03-3.528 0-1.666-.422-3.065-1.26-4.197-.838-1.132-1.92-1.817-3.248-2.057.718-.359 1.583-.539 2.596-.539zm20.968 0c1.851 0 3.31.5 4.377 1.501 1.067.99 1.602 2.427 1.602 4.31v1.225h-11.303v-1.6c0-1.643.468-2.96 1.404-3.95.937-.991 2.244-1.487 3.92-1.487zm27.877.505c.773 0 1.47.295 2.09.883.62.577 1.21 1.926 1.766 4.049.413 1.567.978 2.971 1.697 4.213a12.871 12.871 0 0 0 2.66 3.2c-1.197.36-2.23.54-3.101.54-2.58 0-4.688-.708-6.32-2.123-1.634-1.416-2.45-3.278-2.45-5.586 0-1.546.344-2.791 1.03-3.738.696-.958 1.572-1.438 2.628-1.438zm11.172 0c1.187 0 2.167.463 2.94 1.389.773.925 1.158 2.073 1.158 3.445 0 1.383-.459 2.706-1.373 3.969-.904 1.263-2.02 2.137-3.348 2.627-1.023-.555-1.872-1.469-2.547-2.742-.675-1.285-1.011-2.58-1.011-3.887 0-1.361.424-2.498 1.273-3.412.85-.926 1.82-1.389 2.908-1.389zm-63.92 1.176c.86 0 1.58.397 2.157 1.191.587.784.88 1.787.88 3.006 0 2.101-.49 3.798-1.47 5.094-.98 1.285-2.177 1.928-3.592 1.928h-1.094v-5.584c0-1.644.311-2.997.932-4.053.62-1.056 1.349-1.582 2.187-1.582zm100.516 3.25c.827 0 1.491.277 1.992.832.512.544.774 1.231.785 2.059 0 .968-.235 1.69-.703 2.17-.457.478-1.149.72-2.074.72-.828 0-1.496-.258-2.008-.77-.512-.522-.77-1.228-.77-2.12 0-.828.258-1.515.77-2.06.512-.554 1.18-.831 2.008-.831zm20.576.392c-1.34.011-2.45.461-3.332 1.354-.87.893-1.305 1.992-1.305 3.299 0 1.382.434 2.498 1.305 3.347.882.85 1.993 1.276 3.332 1.276 1.328 0 2.435-.426 3.316-1.276.893-.86 1.338-1.975 1.338-3.347 0-1.34-.445-2.444-1.338-3.315-.881-.882-1.988-1.327-3.316-1.338zm-.457 1.534c.86 0 1.568.3 2.123.898.566.588.85 1.323.85 2.205-.011.947-.295 1.704-.85 2.27-.544.555-1.252.834-2.123.834-.882 0-1.599-.28-2.154-.834-.545-.566-.819-1.323-.819-2.27 0-.87.28-1.606.834-2.205.566-.599 1.279-.898 2.139-.898zm30.691 6.279l-8.271 11.789 4.95 3.648 9.443-10.748-6.122-4.689zM363.451 58.18c-1.52 0-2.844.13-3.972.39a26.47 26.47 0 0 0-2.932.715l1.693 7.817a9.63 9.63 0 0 1 1.89-.522 11.093 11.093 0 0 1 1.692-.129c.999 0 1.847.172 2.541.52.695.347 1.301.867 1.823 1.562.52.695 1 1.564 1.435 2.606.478.998.975 2.171 1.496 3.517-2.214 4.342-4.472 9.424-6.773 15.242-2.258 5.819-4.363 12.09-6.317 18.82h9.963c.434-1.693.957-3.602 1.565-5.73a510.835 510.835 0 0 1 1.888-6.449c.695-2.214 1.39-4.34 2.084-6.38a137.254 137.254 0 0 1 1.953-5.407 100.763 100.763 0 0 1 1.76 5.406 300.85 300.85 0 0 1 1.824 6.381 208.623 208.623 0 0 1 1.823 6.45 718.727 718.727 0 0 1 1.498 5.73h10.355a293.523 293.523 0 0 0-1.562-5.535c-.608-2.085-1.282-4.3-2.02-6.645a288.709 288.709 0 0 0-2.408-7.424c-.825-2.562-1.717-5.1-2.672-7.619a167.968 167.968 0 0 0-2.865-7.49 136.448 136.448 0 0 0-2.996-6.904c-.782-1.65-1.606-3.04-2.475-4.168-.868-1.173-1.825-2.106-2.867-2.801a9.953 9.953 0 0 0-3.385-1.498c-1.216-.304-2.563-.455-4.039-.455zm37.528 0c-1.52 0-2.844.13-3.973.39a26.47 26.47 0 0 0-2.932.715l1.692 7.817a9.611 9.611 0 0 1 1.89-.522 11.119 11.119 0 0 1 1.694-.129c.998 0 1.844.172 2.539.52.694.347 1.303.867 1.824 1.562.52.695 1 1.564 1.433 2.606.478.998.977 2.171 1.499 3.517-2.215 4.342-4.475 9.424-6.776 15.242-2.258 5.819-4.362 12.09-6.316 18.82h9.965c.434-1.693.956-3.602 1.564-5.73a510.491 510.491 0 0 1 1.887-6.449c.694-2.214 1.391-4.34 2.086-6.38a134.101 134.101 0 0 1 1.953-5.407 100.763 100.763 0 0 1 1.76 5.406c.607 2.04 1.214 4.167 1.822 6.381.651 2.171 1.26 4.322 1.824 6.45a720.015 720.015 0 0 1 1.498 5.73h10.354a328.091 328.091 0 0 0-3.58-12.18 288.955 288.955 0 0 0-2.41-7.424c-.826-2.562-1.717-5.1-2.672-7.619a167.953 167.953 0 0 0-2.864-7.49 136.439 136.439 0 0 0-2.996-6.904c-.781-1.65-1.608-3.04-2.476-4.168-.869-1.173-1.824-2.106-2.866-2.801a9.963 9.963 0 0 0-3.386-1.498c-1.216-.304-2.561-.455-4.037-.455zm-61.381 15.37c-2.258 0-4.344.238-6.254.716-1.867.434-3.473 1.107-4.819 2.02a9.718 9.718 0 0 0-3.191 3.32c-.738 1.302-1.107 2.823-1.107 4.56 0 1.433.325 2.713.976 3.842.695 1.129 1.673 2.062 2.932 2.8-1.78.956-3.062 2.15-3.844 3.583-.782 1.39-1.172 2.845-1.172 4.365 0 2.258.5 4.102 1.498 5.535a11.333 11.333 0 0 0 3.713 3.322 15.713 15.713 0 0 0 4.95 1.563c1.823.304 3.56.455 5.21.455 3.517 0 6.493-.281 8.924-.846 2.475-.52 4.21-1.02 5.209-1.498l-2.084-7.295c-.912.348-2.366.738-4.363 1.172-1.998.434-4.17.652-6.514.652-2.17 0-3.755-.283-4.754-.847-.998-.565-1.498-1.475-1.498-2.735 0-.781.151-1.39.455-1.824a2.707 2.707 0 0 1 1.174-1.043 5.537 5.537 0 0 1 1.758-.52 15.42 15.42 0 0 1 2.02-.13h6.706v-7.1h-6.576c-.477 0-1-.02-1.564-.064a5.983 5.983 0 0 1-1.498-.457 2.958 2.958 0 0 1-1.106-.977c-.26-.434-.392-1.02-.392-1.758 0-1.129.543-1.932 1.629-2.41 1.129-.52 2.518-.783 4.168-.783 1.259 0 2.692.111 4.298.328 1.607.217 3.147.629 4.623 1.236l1.563-7.228c-.478-.217-1.128-.435-1.953-.652-.782-.261-1.692-.477-2.735-.65a23.522 23.522 0 0 0-3.19-.456 26.776 26.776 0 0 0-3.192-.195zm108.004.13c-2.866 0-5.6.218-8.206.652-2.605.39-4.732.823-6.382 1.3v33.087h9.705V82.277a24.493 24.493 0 0 1 2.084-.195 20.08 20.08 0 0 1 2.213-.13c2.257 0 3.8.65 4.625 1.952.825 1.303 1.238 3.519 1.238 6.645v30.219h9.703V89.375c0-2.345-.237-4.47-.715-6.38-.477-1.911-1.281-3.563-2.41-4.952-1.129-1.39-2.671-2.453-4.625-3.191-1.91-.782-4.321-1.172-7.23-1.172zm130.23 0c-2.735 0-5.188.434-7.36 1.302-2.17.869-4.017 2.107-5.536 3.713-1.52 1.563-2.691 3.452-3.516 5.666-.782 2.171-1.172 4.58-1.172 7.229 0 5.601 1.301 9.986 3.906 13.156 2.649 3.126 6.405 4.69 11.268 4.69 2.345 0 4.342-.37 5.992-1.108 1.693-.738 2.996-1.454 3.908-2.148 1.042 1.042 2.366 1.845 3.973 2.41 1.606.564 3.604.846 5.992.846l1.303-8.077c-.912-.086-1.695-.217-2.346-.39-.651-.174-1.172-.455-1.562-.846-.391-.434-.674-.978-.848-1.629-.174-.695-.26-1.584-.26-2.67V75.633c-1.78-.521-3.929-.977-6.447-1.367a46.73 46.73 0 0 0-7.295-.586zm-111.455.78c2.04 6.861 4.191 13.202 6.45 19.02 2.3 5.819 4.558 10.897 6.773 15.239h8.076c2.214-4.342 4.449-9.42 6.707-15.239 2.301-5.818 4.473-12.159 6.513-19.02h-10.03a130.119 130.119 0 0 1-1.563 5.536 226.227 226.227 0 0 1-1.823 5.994 184.4 184.4 0 0 1-1.89 5.862 309.317 309.317 0 0 1-1.822 5.209 131.636 131.636 0 0 1-1.89-5.21 860.704 860.704 0 0 0-1.888-5.86 517.51 517.51 0 0 0-1.824-5.995 236.138 236.138 0 0 1-1.498-5.535h-10.291zm39.65 0v23.774c0 1.694.197 3.234.588 4.623a8.087 8.087 0 0 0 2.082 3.518c1.042.955 2.41 1.715 4.104 2.28 1.693.52 3.844.78 6.449.78l1.172-7.423c-1.954-.13-3.236-.588-3.844-1.37-.564-.781-.846-1.93-.846-3.45V74.46h-9.705zm20.229 0v34.259h9.705V94.13a31.895 31.895 0 0 1 3.256 3.19 67.788 67.788 0 0 1 3.258 3.779 62.203 62.203 0 0 1 2.93 3.972 74.476 74.476 0 0 1 2.41 3.647h11.136a54.359 54.359 0 0 0-2.863-4.623 62.776 62.776 0 0 0-3.584-5.016 73.93 73.93 0 0 0-4.102-4.885 77.534 77.534 0 0 0-4.039-4.232c.956-.955 2.04-2.084 3.256-3.387a300.648 300.648 0 0 1 3.777-4.103 163.891 163.891 0 0 0 3.778-4.168 144.655 144.655 0 0 0 3.258-3.844h-11.53a138.08 138.08 0 0 1-2.279 2.8 390.866 390.866 0 0 0-2.734 3.321 187.784 187.784 0 0 1-2.998 3.453 247.7 247.7 0 0 1-2.93 3.256V74.46h-9.705zm51.64 7.491c1 0 1.78.044 2.344.131a22.75 22.75 0 0 1 1.696.195v12.57c0 1.737.13 3.343.39 4.819-.738.478-1.565.868-2.476 1.172-.912.304-1.93.457-3.059.457-2.084 0-3.735-.78-4.951-2.344-1.173-1.606-1.758-3.973-1.758-7.1 0-2.995.672-5.385 2.018-7.165 1.389-1.824 3.322-2.735 5.796-2.735zm-252.218 50.682c-1.944 0-3.642.648-5.1 1.943-1.403 1.242-2.105 2.969-2.105 5.182 0 2.213.702 3.966 2.105 5.262 1.458 1.241 3.156 1.86 5.1 1.86 1.943 0 3.618-.619 5.021-1.86 1.458-1.296 2.186-3.049 2.186-5.262 0-2.213-.728-3.94-2.186-5.182-1.403-1.295-3.078-1.943-5.021-1.943zm97.617 4.726c-5.618 0-10.524 1.064-14.715 3.19-5.284 2.703-7.926 6.605-7.926 11.707 0 4.312 1.854 8.245 5.559 11.799h-11.707v6.468h10.156v45.872l5.104 5.832h2.048v-51.704h46.422v10.704h-18.724c-3.614 0-6.181.441-7.7 1.322-1.488.88-2.23 2.4-2.23 4.556 0 3.31 2.93 8 8.791 14.075-4.221 3.431-6.332 7.03-6.332 10.797 0 2.702.912 5.404 2.734 8.107 1.853 2.672 4.63 5.376 8.334 8.11 7.38 5.466 16.644 10.038 27.79 13.712l3.324 1.092.593-1.912c-5.588-1.64-10.599-3.462-15.033-5.467-4.403-2.004-8.214-4.192-11.433-6.56-6.439-4.738-9.657-9.308-9.657-13.711 0-3.827 1.943-6.985 5.83-9.475 3.888-2.52 8.032-3.781 12.436-3.781 2.308 0 4.176.576 5.603 1.73 1.428 1.124 2.141 2.582 2.141 4.373 0 1.55-.88 3.295-2.64 5.239-1.732 1.943-4.344 4.085-7.836 6.423l5.238 5.149c2.824-2.278 4.935-4.602 6.332-6.97 1.427-2.37 2.14-4.814 2.14-7.335 0-3.462-1.563-6.696-4.69-9.703-3.129-3.007-6.774-4.51-10.935-4.51-4.555 0-8.608 1.139-12.162 3.416-2.004-1.943-3.51-3.69-4.511-5.238-1.003-1.58-1.502-2.946-1.502-4.1 0-.941.44-1.656 1.32-2.142.911-.486 2.263-.727 4.055-.727h25.328l-1.139-17.174h75.072v8.702h-8.107c-6.62 0-11.344.939-14.168 2.822-2.794 1.883-4.19 4.709-4.19 8.474 0 2.703.88 5.724 2.641 9.065 1.792 3.31 4.404 6.21 7.836 8.701 3.462 2.46 7.045 3.69 10.75 3.69 1.276 0 2.55-.154 3.826-.457l8.336 10.615 4.875-1.094-8.564-11.205c3.097-2.065 4.646-4.132 4.646-6.197 0-2.187-.833-4.022-2.504-5.51-1.64-1.488-3.752-2.234-6.334-2.234-1.791 0-3.31.547-4.554 1.64-1.245 1.063-1.867 2.232-1.867 3.508 0 1.61.319 2.87.957 3.781-1.367.638-2.961.957-4.784.957-3.158 0-5.785-1.032-7.88-3.097-2.066-2.096-3.098-4.406-3.098-6.926 0-3.371 1.246-5.89 3.736-7.56 2.52-1.701 6.286-2.552 11.297-2.552h13.8l-.907-15.123h21.955v45.872l5.103 5.832h2.05v-51.704h13.802v-6.468h-13.803c-2.612-7.866-5.543-13.85-8.793-17.95-4.616-5.83-10.293-8.746-17.035-8.746-4.373 0-7.975 1.381-10.799 4.145-2.855 2.764-4.28 6.317-4.28 10.66 0 4.16 1.245 8.125 3.735 11.89h-69.379c-5.74-8.898-12.269-15.563-19.588-19.997-7.288-4.465-15.352-6.698-24.19-6.698zm-356.629 1.182v56.115h12.633v-23.158h22.185v-10.607H79.3v-11.743h24.94v-10.607H66.665zm483.178 4.969c3.978 0 7.729 1.715 11.252 5.146 3.523 3.432 6.817 8.566 9.884 15.399h-29.062c-1.367-3.34-2.05-6.546-2.05-9.614 0-3.644.835-6.377 2.505-8.199s4.16-2.732 7.47-2.732zm-125.365.045c7.349 0 14.32 1.714 20.91 5.146 6.59 3.402 12.785 8.52 18.586 15.354h-53.252c-1.914-3.098-2.871-6.272-2.871-9.522 0-3.644 1.38-6.377 4.144-8.199 2.764-1.853 6.925-2.78 12.483-2.78zm-265.034 7.377c-1.403 0-2.807.08-4.21.242a42.39 42.39 0 0 0-3.887.486 30.8 30.8 0 0 0-3.483.649c-1.025.216-1.888.43-2.59.646l1.537 9.717c1.458-.54 3.187-.945 5.184-1.215a37.867 37.867 0 0 1 6.072-.484c3.077 0 5.235.62 6.477 1.861 1.241 1.242 1.863 2.888 1.863 4.94v1.132c-.756-.216-1.754-.376-2.996-.484-1.187-.162-2.565-.242-4.13-.242-2.322 0-4.56.24-6.72.726-2.159.432-4.076 1.162-5.75 2.188-1.673 1.025-3.02 2.401-4.046 4.129-.972 1.727-1.46 3.833-1.46 6.316 0 2.591.432 4.777 1.296 6.559a11.241 11.241 0 0 0 3.726 4.373c1.62 1.08 3.535 1.862 5.748 2.347 2.267.486 4.776.729 7.53.729 4.372 0 8.098-.269 11.175-.809 3.077-.486 5.48-.917 7.207-1.295V168.34c0-2.645-.298-5.048-.892-7.207-.594-2.16-1.619-3.995-3.076-5.506-1.404-1.512-3.293-2.673-5.668-3.482-2.376-.81-5.344-1.213-8.907-1.213zm96.975 0c-3.455 0-6.531.591-9.23 1.779-2.7 1.188-4.994 2.808-6.883 4.86-1.89 1.997-3.348 4.371-4.373 7.124-.972 2.7-1.457 5.59-1.457 8.666 0 2.7.296 5.263.89 7.692.648 2.429 1.62 4.617 2.916 6.56 1.35 1.89 3.022 3.508 5.02 4.858 2.051 1.295 4.48 2.212 7.287 2.752a52.464 52.464 0 0 0-1.133 2.43 28.565 28.565 0 0 0-.89 2.429l.97.242c1.242.27 2.132.675 2.672 1.215.594.54.865 1.134.81 1.781-.053.756-.378 1.27-.972 1.54-.54.323-1.188.486-1.943.486-.972 0-1.97-.137-2.997-.407a40.96 40.96 0 0 1-2.025-.486l-1.455 7.047a27.8 27.8 0 0 0 3.562.727c1.188.215 2.375.324 3.563.324 3.347 0 6.046-.674 8.098-2.024 2.05-1.35 3.076-3.32 3.076-5.912 0-1.241-.325-2.455-.973-3.642-.648-1.188-1.835-2.213-3.562-3.077.108-.27.244-.594.406-.972.162-.378.35-.783.566-1.215 2.16-.108 4.129-.35 5.91-.729 1.836-.377 3.376-.837 4.618-1.376l-1.702-9.877c-1.403.593-2.943 1.025-4.617 1.294-1.673.27-3.238.405-4.695.405-4.103 0-6.99-1.053-8.664-3.158-1.62-2.106-2.43-5.074-2.43-8.907 0-3.616.865-6.533 2.592-8.746 1.781-2.213 4.453-3.32 8.016-3.32 1.673 0 3.185.162 4.535.486 1.35.324 2.59.703 3.724 1.135l2.51-9.637a28.247 28.247 0 0 0-5.506-1.7c-1.89-.433-3.967-.647-6.234-.647zm33.814 0c-1.403 0-2.807.08-4.21.242a42.39 42.39 0 0 0-3.887.486 30.701 30.701 0 0 0-3.48.649c-1.026.216-1.89.43-2.593.646l1.538 9.717c1.457-.54 3.186-.945 5.183-1.215a37.892 37.892 0 0 1 6.074-.484c3.077 0 5.235.62 6.477 1.861 1.242 1.242 1.863 2.888 1.863 4.94v1.132c-.756-.216-1.754-.376-2.996-.484-1.187-.162-2.565-.242-4.13-.242-2.322 0-4.56.24-6.72.726-2.159.432-4.078 1.162-5.751 2.188-1.674 1.025-3.022 2.401-4.047 4.129-.972 1.727-1.46 3.833-1.46 6.316 0 2.591.434 4.777 1.298 6.559a11.236 11.236 0 0 0 3.724 4.373c1.62 1.08 3.535 1.862 5.748 2.347 2.267.486 4.778.729 7.531.729 4.373 0 8.097-.269 11.174-.809 3.077-.486 5.48-.917 7.207-1.295V168.34c0-2.645-.296-5.048-.89-7.207-.594-2.16-1.62-3.995-3.078-5.506-1.404-1.512-3.291-2.673-5.666-3.482-2.376-.81-5.346-1.213-8.909-1.213zm68.162 0c-5.182 0-9.257 1.159-12.226 3.48-2.97 2.321-4.453 5.48-4.453 9.475 0 2.051.297 3.806.89 5.263a11.4 11.4 0 0 0 2.51 3.805c1.08 1.026 2.375 1.918 3.887 2.674a59.982 59.982 0 0 0 5.182 2.185c2.429.918 4.24 1.754 5.427 2.51 1.188.702 1.78 1.538 1.78 2.51 0 1.242-.46 2.08-1.377 2.512-.918.432-2.482.646-4.696.646-2.105 0-4.237-.214-6.396-.646a42.715 42.715 0 0 1-6.317-1.944l-2.023 9.797c.972.432 2.698.972 5.182 1.62 2.537.647 5.694.97 9.472.97 5.776 0 10.23-1.079 13.362-3.238 3.185-2.16 4.777-5.344 4.777-9.555 0-1.781-.217-3.348-.648-4.697-.378-1.35-1.078-2.563-2.104-3.643-.972-1.133-2.321-2.16-4.049-3.078-1.727-.972-3.915-1.942-6.56-2.914a66.88 66.88 0 0 1-3.239-1.295 23.862 23.862 0 0 1-1.943-1.133c-.486-.378-.81-.757-.973-1.134a3.268 3.268 0 0 1-.242-1.297c0-2.106 1.891-3.157 5.67-3.157 2.051 0 3.886.189 5.506.567a43.22 43.22 0 0 1 4.613 1.295l2.108-9.393c-1.404-.54-3.295-1.025-5.67-1.457a37.095 37.095 0 0 0-7.45-.728zm-151.36.16c-3.564 0-6.965.27-10.204.81-3.239.486-5.882 1.026-7.934 1.62v41.134h12.063v-32.875c.756-.108 1.62-.188 2.592-.242.971-.108 1.89-.162 2.754-.162 2.807 0 4.722.808 5.748 2.428 1.025 1.62 1.539 4.375 1.539 8.261v22.59h12.064v-24.049c0-2.915-.295-5.56-.888-7.935-.594-2.375-1.595-4.425-2.999-6.152-1.403-1.728-3.318-3.052-5.748-3.97-2.375-.97-5.371-1.458-8.988-1.458zm-78.774.082c-3.617 0-6.91.35-9.88 1.053-2.914.647-5.451 1.35-7.61 2.105v40.324h12.064v-32.552c.54-.162 1.322-.295 2.348-.403 1.08-.162 1.998-.244 2.754-.244 1.673 0 3.237.162 4.695.486a63.99 63.99 0 0 1 3.806.809l2.024-9.959c-.648-.27-1.428-.487-2.346-.648a24.528 24.528 0 0 0-2.754-.485 23.931 23.931 0 0 0-2.754-.324 20.55 20.55 0 0 0-2.347-.162zm191.425.89v42.592h12.065v-42.592h-12.065zM161.55 176.275c.81 0 1.702.055 2.674.162.971.108 1.7.217 2.185.325v9.15c-.648.108-1.512.188-2.592.242a68.18 68.18 0 0 1-3.4.08c-2.213 0-3.968-.35-5.264-1.052-1.241-.756-1.861-2.078-1.861-3.967 0-.972.217-1.782.648-2.43.432-.648 1.026-1.16 1.782-1.537.755-.378 1.62-.622 2.591-.73a20.728 20.728 0 0 1 3.237-.243zm130.79 0c.81 0 1.703.055 2.675.162.971.108 1.7.217 2.185.325v9.15c-.648.108-1.512.188-2.592.242-1.08.054-2.214.08-3.402.08-2.213 0-3.966-.35-5.262-1.052-1.241-.756-1.863-2.078-1.863-3.967 0-.972.217-1.782.649-2.43.431-.648 1.025-1.16 1.78-1.537.757-.378 1.62-.622 2.593-.73a20.753 20.753 0 0 1 3.238-.243zm192.727 7.96c-1.488 0-2.794.53-3.918 1.593-1.123 1.033-1.685 2.399-1.685 4.1 0 2.43 1.352 5.71 4.055 9.84 2.733 4.13 4.783 6.195 6.15 6.195 1.154 0 1.73-.684 1.73-2.05 0-1.003-.045-1.942-.136-2.823-.213-1.549-.32-2.963-.32-4.238 0-2.521.227-4.176.683-4.965.486-.82 1.809-1.229 3.965-1.229h13.574v-6.424h-24.098zm-98.732 52.632c-1.99 0-3.495.53-4.516 1.586-1.003 1.056-1.504 2.48-1.504 4.276v14.628h3.934v-10.615h4.857v-3.273h-4.857v-.688c0-.37.035-.71.106-1.027.088-.317.22-.592.396-.82.194-.23.449-.406.766-.53.334-.14.74-.209 1.214-.209.353 0 .73.045 1.135.133.423.07.81.183 1.162.342l.766-3.143c-.334-.14-.81-.283-1.426-.423a8.16 8.16 0 0 0-2.033-.237zm27.824 0l-3.933.635v19.855h3.933v-6.072c.44.352.88.783 1.32 1.293.458.51.889 1.048 1.293 1.611a25.14 25.14 0 0 1 1.137 1.665c.37.545.695 1.046.977 1.503h4.515a30.201 30.201 0 0 0-2.56-4.041 37.48 37.48 0 0 0-1.637-2.03 17.32 17.32 0 0 0-1.639-1.718 74.916 74.916 0 0 0 2.905-3.011 176.69 176.69 0 0 0 2.748-3.088h-4.676c-.246.299-.544.652-.896 1.056-.335.405-.695.836-1.082 1.293-.388.44-.795.888-1.217 1.346-.405.458-.8.898-1.188 1.32v-11.617zm-9.613.266c-.634 0-1.187.21-1.662.633-.458.404-.688.967-.688 1.69 0 .72.23 1.293.688 1.716a2.483 2.483 0 0 0 1.662.607c.634 0 1.18-.202 1.639-.607.475-.423.712-.995.712-1.717 0-.722-.237-1.285-.712-1.69a2.334 2.334 0 0 0-1.64-.632zm176.976.523l-7.082 1.14v27.518c0 1.331.126 2.534.38 3.612a6.222 6.222 0 0 0 1.523 2.71c.76.73 1.773 1.3 3.04 1.712 1.3.412 2.978.634 5.038.666l.998-5.848c-.856-.063-1.538-.206-2.045-.428-.507-.222-.902-.505-1.187-.853-.254-.349-.427-.778-.522-1.285a9.326 9.326 0 0 1-.143-1.711v-27.233zm51.797 0l-7.082 1.14v35.741h7.082v-19.01c.444-.126.934-.239 1.473-.334a8.314 8.314 0 0 1 1.807-.19c1.584 0 2.662.476 3.232 1.427.602.95.902 2.566.902 4.847v13.26h7.082v-14.115c0-1.711-.174-3.262-.523-4.656-.317-1.395-.887-2.6-1.71-3.614-.793-1.014-1.87-1.791-3.233-2.33-1.331-.57-3.01-.853-5.037-.853-.698 0-1.426.078-2.186.236a12.72 12.72 0 0 0-1.807.43v-11.979zm-40.324.475c-1.14 0-2.139.38-2.994 1.14-.824.73-1.236 1.744-1.236 3.043 0 1.3.412 2.33 1.236 3.09.855.73 1.853 1.092 2.994 1.092 1.14 0 2.124-.363 2.947-1.092.856-.76 1.284-1.79 1.284-3.09 0-1.299-.428-2.314-1.284-3.043-.823-.76-1.806-1.14-2.947-1.14zm-226.008.928a100.444 100.444 0 0 0-1.795 3.908 243.728 243.728 0 0 0-1.742 4.197 237.614 237.614 0 0 0-1.795 4.727 326.32 326.32 0 0 0-1.953 5.466h4.278a62.04 62.04 0 0 1 .632-1.953c.247-.669.484-1.339.713-2.008h7.13l.685 2.008c.246.67.468 1.32.662 1.953h4.408a325.483 325.483 0 0 0-1.955-5.466 160.752 160.752 0 0 0-1.82-4.727 113.2 113.2 0 0 0-1.745-4.197 134.304 134.304 0 0 0-1.767-3.908h-3.936zm122.993 2.543v32.935h23.335v-6.224h-15.921v-7.938h13.166v-6.084h-13.166v-6.463h14.828v-6.226H489.98zm-59.76 1.498c-.458 0-.914.025-1.371.078-.44.035-.863.088-1.268.158a10.02 10.02 0 0 0-1.135.213c-.334.07-.617.14-.845.21l.502 3.169a7.963 7.963 0 0 1 1.689-.397 12.354 12.354 0 0 1 1.98-.158c1.004 0 1.709.203 2.114.607.405.405.607.94.607 1.61v.369a5.421 5.421 0 0 0-.978-.156c-.388-.053-.836-.08-1.346-.08-.757 0-1.487.078-2.191.236-.705.14-1.33.38-1.875.715a3.873 3.873 0 0 0-1.32 1.347c-.318.564-.475 1.25-.475 2.06 0 .844.14 1.557.421 2.138a3.66 3.66 0 0 0 1.213 1.426c.528.352 1.154.607 1.875.765.74.159 1.56.238 2.457.238 1.426 0 2.642-.087 3.645-.263 1.003-.159 1.784-.3 2.348-.424v-8.186c0-.862-.096-1.645-.29-2.35a4.105 4.105 0 0 0-1.003-1.794c-.458-.493-1.074-.873-1.848-1.137-.775-.264-1.745-.394-2.906-.394zm14.595 0c-.457 0-.915.025-1.373.078-.44.035-.862.088-1.267.158a10.02 10.02 0 0 0-1.135.213 9.94 9.94 0 0 0-.846.21l.502 3.169a7.964 7.964 0 0 1 1.69-.397 12.378 12.378 0 0 1 1.982-.158c1.003 0 1.705.203 2.11.607.404.405.609.94.609 1.61v.369a5.421 5.421 0 0 0-.979-.156c-.387-.053-.835-.08-1.345-.08a9.96 9.96 0 0 0-2.192.236c-.704.14-1.329.38-1.875.715a3.873 3.873 0 0 0-1.32 1.347c-.317.564-.477 1.25-.477 2.06 0 .844.143 1.557.424 2.138.282.58.687 1.056 1.215 1.426.528.352 1.153.607 1.875.765.74.159 1.557.238 2.455.238 1.426 0 2.641-.087 3.645-.263a42.89 42.89 0 0 0 2.35-.424v-8.186c0-.862-.098-1.645-.292-2.35a4.105 4.105 0 0 0-1.004-1.794c-.457-.493-1.073-.873-1.847-1.137-.775-.264-1.743-.394-2.905-.394zm30.118 0c-1.69 0-3.019.377-3.987 1.134-.968.757-1.453 1.788-1.453 3.09 0 .67.098 1.24.291 1.715.194.475.466.89.819 1.242a5.2 5.2 0 0 0 1.267.871c.51.247 1.073.484 1.69.713.792.3 1.382.572 1.77.819.386.228.581.501.581.818 0 .405-.15.68-.45.82-.298.141-.81.21-1.532.21-.687 0-1.382-.069-2.086-.21a13.927 13.927 0 0 1-2.059-.636l-.66 3.195c.317.14.88.318 1.69.53.827.21 1.857.316 3.09.316 1.883 0 3.334-.351 4.355-1.055 1.038-.704 1.558-1.744 1.558-3.117 0-.581-.07-1.091-.21-1.532a2.814 2.814 0 0 0-.688-1.189c-.317-.37-.755-.703-1.318-1.002-.564-.317-1.277-.634-2.14-.951a21.914 21.914 0 0 1-1.056-.422 7.753 7.753 0 0 1-.633-.37.993.993 0 0 1-.318-.37 1.06 1.06 0 0 1-.08-.422c0-.687.617-1.03 1.85-1.03.669 0 1.266.06 1.795.184.545.123 1.048.266 1.505.424l.686-3.063c-.458-.176-1.073-.335-1.848-.476a12.103 12.103 0 0 0-2.43-.236zm-14.598.05c-1.162 0-2.272.09-3.328.266-1.056.158-1.92.334-2.588.527v13.414h3.934v-10.72a10.2 10.2 0 0 1 .845-.078c.317-.036.617-.053.899-.053.915 0 1.54.263 1.875.79.334.529.502 1.427.502 2.694v7.367h3.933v-7.841c0-.95-.097-1.814-.29-2.588-.194-.775-.52-1.445-.977-2.008-.458-.563-1.083-.992-1.875-1.291-.775-.317-1.75-.479-2.93-.479zm-63.18.028c-1.18 0-2.252.115-3.22.343-.951.212-1.779.44-2.483.686v13.15h3.934v-10.615a4.49 4.49 0 0 1 .765-.13c.352-.053.652-.08.899-.08a7.09 7.09 0 0 1 1.531.157c.475.088.888.178 1.24.266l.66-3.25a3.663 3.663 0 0 0-.765-.21 7.98 7.98 0 0 0-.897-.16 8.075 8.075 0 0 0-.898-.105 6.684 6.684 0 0 0-.766-.052zm-28.295.027c.106.264.248.624.424 1.082l.608 1.584c.246.599.501 1.259.765 1.98.264.722.537 1.478.819 2.27h-5.204c.282-.792.557-1.548.82-2.27.282-.721.536-1.381.764-1.98l.61-1.584c.176-.458.306-.818.394-1.082zm33.73.264v13.888h3.936V243.47h-3.935zm209.61 5.401c-3.042 0-5.433.683-7.176 2.045-1.742 1.362-2.617 3.218-2.617 5.563 0 1.204.177 2.232.526 3.087a6.696 6.696 0 0 0 1.472 2.235c.634.602 1.394 1.125 2.282 1.568.918.444 1.932.871 3.04 1.283 1.426.539 2.489 1.03 3.186 1.473.697.412 1.045.904 1.045 1.475 0 .728-.27 1.219-.809 1.472-.538.254-1.456.38-2.755.38a19.12 19.12 0 0 1-3.756-.38 25.044 25.044 0 0 1-3.705-1.14l-1.19 5.75c.57.253 1.586.57 3.043.95 1.49.381 3.343.571 5.56.571 3.391 0 6.005-.633 7.842-1.9 1.87-1.268 2.803-3.138 2.803-5.61 0-1.045-.127-1.965-.38-2.757a5.05 5.05 0 0 0-1.235-2.14c-.57-.665-1.363-1.265-2.377-1.804-1.014-.57-2.297-1.14-3.85-1.71-.76-.286-1.393-.54-1.9-.762a14.032 14.032 0 0 1-1.14-.665c-.286-.221-.476-.442-.57-.664a1.92 1.92 0 0 1-.143-.761c0-1.236 1.108-1.854 3.326-1.854 1.204 0 2.282.11 3.232.332a25.61 25.61 0 0 1 2.71.76l1.233-5.512c-.823-.317-1.932-.602-3.326-.855a21.759 21.759 0 0 0-4.37-.43zm-83.273.098c-2.091 0-4.09.158-5.99.474-1.902.286-3.453.603-4.657.952v24.142h7.082V255.24c.444-.063.95-.109 1.52-.14.57-.064 1.11-.096 1.617-.096 1.648 0 2.771.475 3.373 1.426.602.95.904 2.566.904 4.847v13.26h7.082v-14.115c0-1.711-.174-3.262-.523-4.656-.349-1.395-.936-2.6-1.76-3.614-.824-1.014-1.947-1.791-3.373-2.33-1.394-.57-3.152-.853-5.275-.853zm28.842 0c-1.997 0-3.785.3-5.37.902-1.584.57-2.93 1.394-4.039 2.47-1.077 1.078-1.902 2.378-2.472 3.9-.57 1.488-.854 3.152-.854 4.99 0 3.675.916 6.542 2.754 8.601 1.838 2.028 4.486 3.043 7.94 3.043.95 0 1.82-.08 2.613-.238.824-.19 1.616-.46 2.377-.809v.902c0 1.395-.428 2.537-1.283 3.424-.824.887-2.252 1.33-4.28 1.33-1.552 0-2.946-.127-4.181-.38a20.925 20.925 0 0 1-3.47-1.045l-1.235 5.939a26.67 26.67 0 0 0 4.23 1.047c1.52.285 3.042.428 4.563.428 4.34 0 7.542-.998 9.601-2.994 2.091-1.965 3.135-4.991 3.135-9.079v-21.005a22.354 22.354 0 0 0-2.186-.524 27.435 27.435 0 0 0-2.52-.475 37.23 37.23 0 0 0-2.706-.287 24.565 24.565 0 0 0-2.617-.14zm31.709.568v25h7.082v-25h-7.082zm-158.569 1.826c.264 0 .556.018.873.053.317.035.555.07.713.105v2.985a7.7 7.7 0 0 1-.846.08c-.352.018-.722.025-1.109.025-.722 0-1.294-.115-1.717-.343-.405-.247-.605-.68-.605-1.295 0-.317.068-.58.209-.791.14-.212.335-.38.582-.502.246-.124.527-.203.844-.239a6.78 6.78 0 0 1 1.056-.078zm14.594 0c.264 0 .554.018.871.053.317.035.556.07.715.105v2.985a7.7 7.7 0 0 1-.846.08 21.84 21.84 0 0 1-1.11.025c-.72 0-1.292-.115-1.714-.343-.405-.247-.61-.68-.61-1.295 0-.317.073-.58.213-.791a1.47 1.47 0 0 1 .58-.502c.247-.124.53-.203.846-.239a6.754 6.754 0 0 1 1.055-.078zm112.314 3.309c.634 0 1.19.03 1.664.094.476.031.888.079 1.237.142v11.313a7.775 7.775 0 0 1-1.617.666 7.089 7.089 0 0 1-2.045.285c-3.2 0-4.8-1.98-4.8-5.942 0-1.9.46-3.469 1.38-4.705.919-1.235 2.312-1.853 4.181-1.853zm-214.824 9.783l-9.394 8.2 3.41 3.95 5.984-4.609 5.987 4.61 3.29-3.952-9.277-8.199zm59.53 1.076v.479c0 1.476.237 2.814.716 4.011.519 1.158 1.2 2.134 2.037 2.932a9.487 9.487 0 0 0 3.051 1.856c1.197.438 2.494.658 3.89.658 1.357 0 2.634-.22 3.83-.658 1.198-.44 2.216-1.058 3.054-1.856a8.076 8.076 0 0 0 2.035-2.932c.518-1.197.777-2.535.777-4.011v-.479h-6.045c-.12 1.676-.517 2.814-1.195 3.412-.678.559-1.498.838-2.455.838-.958 0-1.777-.279-2.455-.838-.679-.598-1.076-1.736-1.196-3.412h-6.045zm-184.575 3.77c-1.715 0-3.669.082-5.863.242a52.99 52.99 0 0 0-6.285.836v40.877h9.336v-15.14h4.61a37.827 37.827 0 0 1 2.392 3.232 75.111 75.111 0 0 1 2.394 3.71 68.016 68.016 0 0 1 2.395 4.069 497.009 497.009 0 0 1 2.334 4.129h10.472a100.2 100.2 0 0 0-2.334-4.608 61.805 61.805 0 0 0-2.632-4.548 68.974 68.974 0 0 0-2.692-4.19 52.959 52.959 0 0 0-2.635-3.59c2.514-1.037 4.43-2.454 5.747-4.25 1.356-1.835 2.035-4.21 2.035-7.123 0-4.668-1.657-8.098-4.97-10.293-3.31-2.234-8.08-3.353-14.304-3.353zm.54 7.96c2.992 0 5.247.44 6.763 1.317 1.556.838 2.334 2.276 2.334 4.31 0 2.115-.76 3.611-2.275 4.489-1.517.878-4.03 1.316-7.541 1.316h-2.633V277.44c.479-.04.98-.079 1.498-.119a26.13 26.13 0 0 1 1.853-.06zm39.175 1.678c-2.234 0-4.307.398-6.223 1.196a14.919 14.919 0 0 0-4.908 3.351c-1.356 1.437-2.434 3.172-3.232 5.207-.758 2.035-1.137 4.29-1.137 6.764s.379 4.748 1.137 6.822c.758 2.035 1.815 3.79 3.172 5.266a14.275 14.275 0 0 0 4.847 3.353c1.916.798 4.03 1.196 6.344 1.196 2.354 0 4.47-.398 6.346-1.196 1.915-.798 3.55-1.917 4.906-3.353 1.357-1.476 2.393-3.23 3.111-5.266.719-2.074 1.079-4.348 1.079-6.822s-.38-4.729-1.137-6.764c-.758-2.035-1.815-3.77-3.172-5.207-1.357-1.436-2.993-2.553-4.908-3.351-1.876-.798-3.95-1.196-6.225-1.196zm85.213 0c-1.037 0-2.076.058-3.113.178-.998.08-1.956.2-2.873.36a22.96 22.96 0 0 0-2.575.478c-.758.16-1.395.319-1.914.479l1.137 7.183c1.077-.399 2.354-.699 3.83-.898 1.476-.24 2.974-.36 4.49-.36 2.275 0 3.87.46 4.788 1.377.917.918 1.376 2.135 1.376 3.65v.839c-.558-.16-1.299-.28-2.216-.36-.878-.12-1.894-.18-3.051-.18-1.716 0-3.37.18-4.967.54-1.596.319-3.013.859-4.25 1.617a8.765 8.765 0 0 0-2.992 3.05c-.718 1.277-1.078 2.833-1.078 4.669 0 1.915.318 3.532.957 4.85a8.302 8.302 0 0 0 2.754 3.23c1.197.798 2.612 1.377 4.248 1.736 1.676.359 3.531.539 5.566.539 3.232 0 5.988-.2 8.262-.6 2.274-.359 4.047-.677 5.324-.957v-18.552c0-1.955-.217-3.732-.656-5.328-.439-1.596-1.198-2.954-2.276-4.07-1.037-1.118-2.433-1.975-4.189-2.573-1.756-.599-3.949-.897-6.582-.897zm68.264 0c-1.038 0-2.074.058-3.112.178-.997.08-1.955.2-2.873.36-.917.12-1.774.279-2.572.478-.758.16-1.397.319-1.916.479l1.137 7.183c1.077-.399 2.354-.699 3.83-.898 1.476-.24 2.972-.36 4.488-.36 2.274 0 3.871.46 4.79 1.377.917.918 1.374 2.135 1.374 3.65v.839c-.558-.16-1.295-.28-2.213-.36-.878-.12-1.895-.18-3.052-.18-1.716 0-3.371.18-4.967.54-1.596.319-3.013.859-4.25 1.617a8.765 8.765 0 0 0-2.992 3.05c-.719 1.277-1.079 2.833-1.079 4.669 0 1.915.321 3.532.96 4.85a8.297 8.297 0 0 0 2.751 3.23c1.197.798 2.614 1.377 4.25 1.736 1.676.359 3.532.539 5.567.539 3.232 0 5.983-.2 8.258-.6 2.274-.359 4.05-.677 5.328-.957v-18.552c0-1.955-.222-3.732-.66-5.328-.44-1.596-1.197-2.954-2.274-4.07-1.037-1.118-2.434-1.975-4.19-2.573-1.755-.599-3.95-.897-6.583-.897zm-118.2.118a35.66 35.66 0 0 0-3.53.181c-1.198.08-2.375.219-3.532.418a38.74 38.74 0 0 0-3.232.6c-.998.2-1.873.398-2.631.598v30.402h8.916v-24.299a23.2 23.2 0 0 1 1.736-.178c.599-.08 1.176-.12 1.734-.12 1.796 0 3.054.597 3.772 1.794.758 1.197 1.137 3.233 1.137 6.106v16.697h8.916V294.08c0-1.157-.038-2.235-.118-3.232a13.648 13.648 0 0 0-.539-2.934c.559-.359 1.256-.657 2.094-.896.878-.24 1.556-.36 2.035-.36 1.796 0 3.054.598 3.772 1.795.758 1.197 1.135 3.233 1.135 6.106v16.697h8.917V293.48c0-2.154-.18-4.107-.539-5.863-.359-1.755-1.015-3.272-1.972-4.549-.958-1.276-2.255-2.255-3.89-2.933-1.597-.718-3.653-1.078-6.167-1.078-1.396 0-2.932.26-4.607.779-1.636.519-3.093 1.237-4.37 2.154-.917-.798-2.094-1.476-3.53-2.035-1.397-.598-3.232-.898-5.507-.898zm85.112 0c-2.634 0-5.15.2-7.543.6-2.394.358-4.35.758-5.865 1.197v30.402h8.918v-24.299c.558-.08 1.195-.138 1.914-.178a18.45 18.45 0 0 1 2.037-.12c2.075 0 3.49.597 4.248 1.794s1.136 3.233 1.136 6.106v16.697h8.918V293.48c0-2.154-.219-4.107-.658-5.863-.439-1.755-1.177-3.272-2.215-4.549-1.037-1.276-2.454-2.255-4.25-2.933-1.755-.718-3.967-1.078-6.64-1.078zm348.787 3.789l-11.803 1.902v45.863c0 2.218.21 4.224.633 6.02.475 1.743 1.32 3.248 2.535 4.515 1.268 1.215 2.958 2.166 5.07 2.852 2.166.687 4.964 1.057 8.397 1.11l1.664-9.743c-1.426-.105-2.563-.343-3.408-.713-.845-.37-1.503-.845-1.979-1.425-.422-.581-.714-1.294-.873-2.14-.158-.844-.236-1.796-.236-2.853v-45.387zm-79.633 1.504a8.38 8.38 0 0 1-1.664 2.377c-.686.686-1.56 1.03-2.615 1.03a7.955 7.955 0 0 1-2.533-.396 101.96 101.96 0 0 0-2.297-.95 19.696 19.696 0 0 0-2.457-.95c-.792-.317-1.663-.477-2.614-.477-1.214 0-2.322.263-3.326.791a10.159 10.159 0 0 0-2.693 2.06 14.047 14.047 0 0 0-2.06 2.616c-.529.95-.951 1.821-1.268 2.613l5.783 3.803a8.38 8.38 0 0 1 1.664-2.377c.687-.686 1.557-1.03 2.613-1.03a6.56 6.56 0 0 1 2.457.476 22.27 22.27 0 0 1 2.375.95l2.377.95a8.971 8.971 0 0 0 2.692.398c1.214 0 2.324-.265 3.328-.793a11.09 11.09 0 0 0 2.693-1.98 13.592 13.592 0 0 0 1.98-2.695c.582-.95 1.03-1.822 1.346-2.614l-5.78-3.802zm-389.543 2.248c2.035 0 3.59.798 4.668 2.394 1.117 1.556 1.678 3.712 1.678 6.465 0 2.753-.56 4.946-1.678 6.582-1.077 1.596-2.633 2.395-4.668 2.395s-3.611-.799-4.728-2.395c-1.118-1.636-1.674-3.829-1.674-6.582 0-2.753.556-4.909 1.674-6.465 1.117-1.596 2.693-2.394 4.728-2.394zm185.565 2.822v54.894h38.892V333.94h-26.537v-13.23h21.941v-10.14h-21.941V299.8h24.715v-10.38h-37.07zm-98.797 8.25c.598 0 1.256.041 1.974.121.719.08 1.258.16 1.617.24v6.762a17.5 17.5 0 0 1-1.916.18c-.798.04-1.635.06-2.513.06-1.636 0-2.933-.26-3.89-.78-.919-.558-1.378-1.534-1.378-2.93 0-.719.16-1.319.479-1.798.319-.478.76-.857 1.318-1.136.559-.28 1.196-.46 1.914-.54a15.35 15.35 0 0 1 2.395-.18zm68.265 0c.599 0 1.259.041 1.977.121.718.08 1.254.16 1.613.24v6.762c-.479.08-1.116.14-1.914.18-.798.04-1.636.06-2.514.06-1.635 0-2.933-.26-3.89-.78-.918-.558-1.377-1.534-1.377-2.93 0-.719.161-1.319.48-1.798.32-.478.758-.857 1.317-1.136.558-.28 1.196-.46 1.914-.54.758-.12 1.556-.18 2.394-.18zm92.67 3.87c-5.07 0-9.058 1.135-11.963 3.405-2.904 2.271-4.355 5.36-4.355 9.268 0 2.007.29 3.724.871 5.15a11.16 11.16 0 0 0 2.457 3.723c1.056 1.003 2.322 1.874 3.8 2.613 1.532.74 3.22 1.452 5.07 2.139 2.376.898 4.146 1.718 5.308 2.457 1.162.686 1.742 1.504 1.742 2.455 0 1.215-.448 2.033-1.346 2.455-.898.423-2.428.635-4.594.635-2.06 0-4.145-.212-6.257-.635a41.79 41.79 0 0 1-6.18-1.9l-1.98 9.584c.95.422 2.64.95 5.07 1.584 2.482.633 5.57.95 9.267.95 5.65 0 10.008-1.055 13.07-3.167 3.116-2.112 4.675-5.229 4.675-9.348 0-1.742-.213-3.273-.635-4.594-.37-1.32-1.055-2.508-2.059-3.564-.95-1.109-2.27-2.112-3.96-3.01-1.69-.95-3.83-1.9-6.417-2.851a65.333 65.333 0 0 1-3.168-1.268 23.36 23.36 0 0 1-1.902-1.11c-.475-.369-.79-.739-.95-1.109a3.192 3.192 0 0 1-.238-1.267c0-2.06 1.847-3.09 5.543-3.09 2.007 0 3.805.185 5.389.555 1.637.37 3.14.792 4.514 1.267l2.06-9.19c-1.373-.527-3.221-1.003-5.545-1.425a36.288 36.288 0 0 0-7.287-.713zm86.174 0c-1.373 0-2.746.079-4.12.237a41.76 41.76 0 0 0-3.802.475c-1.214.158-2.35.37-3.406.635a29.378 29.378 0 0 0-2.533.633l1.506 9.505c1.425-.528 3.114-.923 5.068-1.187a37.037 37.037 0 0 1 5.94-.477c3.01 0 5.123.61 6.337 1.825 1.215 1.214 1.823 2.823 1.823 4.83v1.109c-.74-.211-1.717-.369-2.932-.475-1.162-.158-2.508-.238-4.04-.238-2.27 0-4.461.238-6.573.713-2.113.422-3.986 1.135-5.623 2.139a11.618 11.618 0 0 0-3.963 4.04c-.95 1.69-1.426 3.75-1.426 6.178 0 2.535.423 4.674 1.268 6.416a10.993 10.993 0 0 0 3.644 4.278c1.584 1.056 3.458 1.821 5.623 2.297 2.218.475 4.674.713 7.367.713 4.278 0 7.922-.263 10.932-.791 3.01-.476 5.36-.898 7.05-1.268V318.57c0-2.587-.291-4.936-.872-7.049-.581-2.112-1.584-3.908-3.01-5.386-1.373-1.479-3.221-2.614-5.545-3.406-2.324-.793-5.228-1.19-8.713-1.19zm93.916 0c-2.957 0-5.703.529-8.238 1.585a19.736 19.736 0 0 0-6.494 4.436c-1.796 1.9-3.222 4.197-4.278 6.89-1.003 2.693-1.506 5.677-1.506 8.951 0 3.274.503 6.286 1.506 9.032 1.004 2.693 2.402 5.016 4.198 6.97 1.795 1.901 3.934 3.38 6.416 4.436 2.534 1.056 5.333 1.584 8.396 1.584 3.116 0 5.915-.528 8.397-1.584 2.534-1.056 4.7-2.535 6.496-4.436 1.795-1.954 3.168-4.277 4.119-6.97.95-2.746 1.426-5.758 1.426-9.032s-.501-6.258-1.504-8.95c-1.004-2.694-2.404-4.99-4.2-6.891-1.795-1.902-3.96-3.38-6.496-4.436-2.482-1.056-5.228-1.586-8.238-1.586zm-139.662.16c-1.426 0-2.931.08-4.516.238a67.695 67.695 0 0 0-4.593.474 51.265 51.265 0 0 0-4.278.791 37.297 37.297 0 0 0-3.644.873v54.893h11.802v-15.684a22.119 22.119 0 0 0 4.12 1.348c1.425.317 2.958.474 4.595.474 2.958 0 5.571-.53 7.842-1.586 2.27-1.056 4.172-2.534 5.703-4.435 1.532-1.901 2.692-4.17 3.485-6.81.792-2.641 1.187-5.574 1.187-8.796 0-3.326-.5-6.336-1.504-9.029-.95-2.693-2.35-4.962-4.199-6.81-1.848-1.901-4.117-3.354-6.81-4.358-2.694-1.056-5.757-1.584-9.19-1.584zm92.303 0c-3.486 0-6.812.262-9.98.79-3.17.476-5.758 1.005-7.764 1.586v40.238h11.802v-32.16c.74-.105 1.585-.183 2.535-.236a24.365 24.365 0 0 1 2.694-.158c2.746 0 4.62.79 5.623 2.375 1.003 1.584 1.506 4.278 1.506 8.08v22.1h11.8v-23.526c0-2.852-.288-5.44-.869-7.764-.58-2.323-1.558-4.33-2.931-6.02-1.373-1.689-3.247-2.982-5.623-3.88-2.324-.95-5.255-1.426-8.793-1.426zm47.36 9.98c2.692 0 4.753 1.055 6.179 3.168 1.478 2.06 2.217 4.91 2.217 8.554s-.739 6.548-2.217 8.713c-1.426 2.113-3.487 3.17-6.18 3.17-2.693 0-4.78-1.057-6.258-3.17-1.478-2.165-2.218-5.069-2.218-8.713 0-3.643.74-6.495 2.218-8.554 1.479-2.113 3.565-3.168 6.258-3.168zm-139.743.08c3.221 0 5.652 1.108 7.289 3.326 1.637 2.165 2.455 5.07 2.455 8.713 0 7.551-2.799 11.328-8.396 11.328-1.215 0-2.43-.158-3.645-.475-1.162-.317-2.112-.714-2.852-1.19v-21.308c.581-.105 1.321-.183 2.22-.236a25.151 25.151 0 0 1 2.929-.158zm47.885 14.572c.792 0 1.664.055 2.615.16.95.106 1.663.211 2.139.317v8.95c-.634.106-1.48.186-2.536.239-1.056.053-2.164.08-3.326.08-2.165 0-3.883-.345-5.15-1.031-1.215-.74-1.82-2.033-1.82-3.881 0-.95.21-1.743.632-2.377.423-.634 1.003-1.136 1.743-1.506.739-.37 1.584-.607 2.535-.713a20.3 20.3 0 0 1 3.168-.238z" fill="#fff" filter="url(#a)"/></svg>