<svg height="24" width="24" xmlns="http://www.w3.org/2000/svg"><path d="M21.29 5.846a4.59 4.59 0 0 0 2.075-2.514 9.676 9.676 0 0 1-2.996 1.102A4.803 4.803 0 0 0 16.925 3c-2.606 0-4.719 2.035-4.719 4.545 0 .355.043.7.122 1.034-3.923-.19-7.399-2-9.727-4.748a4.414 4.414 0 0 0-.638 2.284c0 1.577.834 2.969 2.1 3.783a4.846 4.846 0 0 1-2.138-.569v.059c0 2.201 1.626 4.038 3.785 4.456a4.925 4.925 0 0 1-2.131.078c.6 1.804 2.343 3.119 4.408 3.154a9.703 9.703 0 0 1-5.86 1.946A9.99 9.99 0 0 1 1 18.958 13.72 13.72 0 0 0 8.232 21c8.681 0 13.427-6.923 13.427-12.928 0-.195-.005-.392-.014-.587a9.404 9.404 0 0 0 2.353-2.35 9.8 9.8 0 0 1-2.708.711z" fill="#1DA1F2"/></svg>